<svg width="32" height="21" viewBox="0 0 32 21" fill="none" xmlns="http://www.w3.org/2000/svg">
<path fill-rule="evenodd" clip-rule="evenodd" d="M21.1808 0.960693C26.7037 0.960693 31.1808 5.43785 31.1808 10.9607C31.1808 16.4835 26.7037 20.9607 21.1808 20.9607H10.0908C4.56797 20.9607 0.0908203 16.4835 0.0908203 10.9607C0.0908203 5.43785 4.56797 0.960693 10.0908 0.960693H21.1808ZM21.1808 2.96069C16.7625 2.96069 13.1808 6.54242 13.1808 10.9607C13.1808 15.379 16.7625 18.9607 21.1808 18.9607C25.5991 18.9607 29.1808 15.379 29.1808 10.9607C29.1808 6.54242 25.5991 2.96069 21.1808 2.96069Z" fill="#444444"/>
<path d="M25.9531 10.9607L18.7944 15.0938L18.7944 6.82762L25.9531 10.9607Z" fill="#444444"/>
</svg>
