<svg width="32" height="21" viewBox="0 0 32 21" fill="none" xmlns="http://www.w3.org/2000/svg">
<path fill-rule="evenodd" clip-rule="evenodd" d="M11.1807 2.96069H10.0908C5.67256 2.96069 2.09085 6.54241 2.09085 10.9607C2.09085 15.379 5.67257 18.9607 10.0908 18.9607H11.1807H21.1809C25.5991 18.9607 29.1808 15.379 29.1808 10.9607C29.1808 6.54242 25.5991 2.96069 21.1808 2.96069H11.1807ZM31.1808 10.9607C31.1808 5.43785 26.7037 0.960693 21.1808 0.960693H10.0908C4.56799 0.960693 0.090847 5.43785 0.090847 10.9607C0.090847 16.4835 4.568 20.9607 10.0908 20.9607H21.1809C26.7037 20.9607 31.1808 16.4835 31.1808 10.9607Z" fill="#444444"/>
<rect x="1.18066" y="2.96069" width="16" height="16" rx="8" fill="white" stroke="#444444" stroke-width="2"/>
<path d="M13.9531 10.9607L6.79443 15.0938L6.79443 6.82762L13.9531 10.9607Z" fill="#444444"/>
</svg>
