<svg width="30" height="21" viewBox="0 0 30 21" fill="none" xmlns="http://www.w3.org/2000/svg">
<path d="M29.714 15.452C29.714 18.458 27.26 20.912 24.254 20.912H5.7267C2.72067 20.912 0.266663 18.458 0.266663 15.452C0.266663 13.3662 1.49353 11.4028 3.3955 10.544C3.33409 10.2371 3.33409 9.93052 3.33409 9.62366C3.33409 6.67882 5.72669 4.28627 8.67148 4.28627C9.9598 4.28627 11.1255 4.7157 12.107 5.51314C13.1498 2.81374 15.7878 0.911987 18.794 0.911987C22.7203 0.911987 25.9104 4.10201 25.9104 8.02844C25.9104 8.76467 25.7878 9.50075 25.6036 10.1756C27.9349 10.7281 29.7141 12.8752 29.7141 15.4518L29.714 15.452Z" fill="#444"/>
</svg>
