<svg width="14" height="22" viewBox="0 0 14 22" fill="none" xmlns="http://www.w3.org/2000/svg">
<path fill-rule="evenodd" clip-rule="evenodd" d="M6.55088 9.42129V9.45001H4.69923V15.0949H8.51699V12.8687C9.3684 12.6983 10.1454 12.3569 10.8448 11.8455C11.607 11.286 12.2119 10.5877 12.6579 9.75275C13.114 8.90555 13.3418 7.98864 13.3418 7.00609C13.3418 5.90847 13.0524 4.89677 12.4744 3.97656C11.9054 3.0583 11.1216 2.32457 10.1286 1.77561C9.12899 1.22298 7.98824 0.950012 6.71325 0.950012C5.63675 0.950012 4.64275 1.15904 3.73498 1.58035C2.82716 1.99389 2.06361 2.59091 1.44714 3.3696L1.44615 3.37087C0.833375 4.15522 0.440624 5.09104 0.263285 6.17119L0.224487 6.40751L3.68313 7.12919L3.72419 6.86997C3.84014 6.13808 4.15375 5.59628 4.65532 5.22011L4.65707 5.21877C5.16515 4.83065 5.82088 4.62758 6.64316 4.62758C7.25505 4.62758 7.76689 4.72838 8.18632 4.92033C8.60452 5.11171 8.91488 5.38337 9.12807 5.73411L9.13119 5.73898C9.35034 6.08141 9.46559 6.49998 9.46559 7.00609C9.46559 7.53343 9.33974 7.96474 9.10058 8.31322C8.85912 8.66507 8.51098 8.94029 8.04349 9.13465C7.68555 9.27993 7.26671 9.37147 6.78352 9.4051L6.55088 9.42129ZM6.58475 16.2771C6.11365 16.2771 5.67669 16.3933 5.27903 16.6265C4.89045 16.8512 4.57954 17.1628 4.34812 17.5571L4.34725 17.5586C4.1211 17.95 4.00998 18.387 4.00998 18.8636C4.00998 19.3332 4.12142 19.7692 4.34601 20.1665L4.34935 20.1721C4.58074 20.5577 4.89056 20.8676 5.27622 21.099L5.27829 21.1002C5.67615 21.3337 6.11336 21.45 6.58475 21.45C7.06262 21.45 7.50056 21.3343 7.89225 21.0996C8.28549 20.8685 8.59986 20.5587 8.83183 20.1721L8.83306 20.17C9.06659 19.7722 9.18288 19.335 9.18288 18.8636C9.18288 18.3857 9.0672 17.9477 8.83245 17.5561C8.6007 17.1616 8.2858 16.8506 7.8905 16.6265C7.49926 16.3924 7.06191 16.2771 6.58475 16.2771ZM7.76466 20.8846L7.89328 21.099L7.89225 21.0996L7.8912 21.1002L7.76466 20.8846Z" fill="#444444"/>
</svg>
